nColumns=19
nRows=94
DataType=double
version=3
OpenSimVersion=4.1
endheader
time	ground_force_1_vx	ground_force_1_vy	ground_force_1_vz	ground_force_1_px	ground_force_1_py	ground_force_1_pz	ground_force_1_mx	ground_force_1_my	ground_force_1_mz	ground_force_2_vx	ground_force_2_vy	ground_force_2_vz	ground_force_2_px	ground_force_2_py	ground_force_2_pz	ground_force_2_mx	ground_force_2_my	ground_force_2_mz
3.98	0	0	0	2.60199e-05	0	0.00040293	0	0	0	74.3609	115.297	-12.8442	0.331069	0	-0.4229	-0	7.38141	-0
3.99	0	0	0	2.60199e-05	0	0.00040293	0	0	0	26.5017	38.8415	-10.2955	0.324945	0	-0.427638	-0	5.30171	-0
4	0	0	0	2.60199e-05	0	0.00040293	0	0	0	6.74809	17.5359	-3.91447	0.628766	0	-0.295405	-0	2.91862	-0
4.01	0	0	0	2.60199e-05	0	0.00040293	0	0	0	-2.23794	10.2093	0.444983	1.0766	0	-0.127787	-0	0.939092	-0
4.02	0	0	0	2.60199e-05	0	0.00040293	0	0	0	0	0	0	2.60199e-05	0	0.00040293	0	0	0
4.03	0	0	0	2.60199e-05	0	0.00040293	0	0	0	0	0	0	2.60199e-05	0	0.00040293	0	0	0
4.04	0	0	0	2.60199e-05	0	0.00040293	0	0	0	0	0	0	2.60199e-05	0	0.00040293	0	0	0
4.05	0	0	0	2.60199e-05	0	0.00040293	0	0	0	0	0	0	2.60199e-05	0	0.00040293	0	0	0
4.06	0	0	0	2.60199e-05	0	0.00040293	0	0	0	0	0	0	2.60199e-05	0	0.00040293	0	0	0
4.07	0	0	0	2.60199e-05	0	0.00040293	0	0	0	0	0	0	2.60199e-05	0	0.00040293	0	0	0
4.08	0	0	0	2.60199e-05	0	0.00040293	0	0	0	0	0	0	2.60199e-05	0	0.00040293	0	0	0
4.09	-7.85989	22.3691	-6.37799	0.850081	0	-0.201681	-0	2.67676	-0	0	0	0	2.60199e-05	0	0.00040293	0	0	0
4.1	-32.2006	92.0155	-15.9479	0.910402	0	-0.247754	-0	3.72445	-0	0	0	0	2.60199e-05	0	0.00040293	0	0	0
4.11	-88.0192	308.516	-29.0245	0.921831	0	-0.258004	-0	4.35508	-0	0	0	0	2.60199e-05	0	0.00040293	0	0	0
4.12	-160.986	721.25	-37.4771	0.917562	0	-0.263215	-0	4.23645	-0	0	0	0	2.60199e-05	0	0.00040293	0	0	0
4.13	-202.144	1179.42	-31.6696	0.897083	0	-0.269449	-0	3.38713	-0	0	0	0	2.60199e-05	0	0.00040293	0	0	0
4.14	-233.956	1490.7	-12.6111	0.868913	0	-0.274595	-0	2.33786	-0	0	0	0	2.60199e-05	0	0.00040293	0	0	0
4.15	-292.978	1664.79	1.55548	0.840936	0	-0.277046	-0	1.94079	-0	0	0	0	2.60199e-05	0	0.00040293	0	0	0
4.16	-310.471	1825.93	-6.52925	0.807457	0	-0.278557	-0	2.87673	-0	0	0	0	2.60199e-05	0	0.00040293	0	0	0
4.17	-255.036	2022.82	-30.6698	0.768522	0	-0.279051	-0	5.22211	-0	0	0	0	2.60199e-05	0	0.00040293	0	0	0
4.18	-178.23	2193.02	-52.6017	0.73243	0	-0.276995	-0	8.41607	-0	0	0	0	2.60199e-05	0	0.00040293	0	0	0
4.19	-107.182	2269.03	-68.4173	0.698616	0	-0.27409	-0	11.5699	-0	0	0	0	2.60199e-05	0	0.00040293	0	0	0
4.2	-33.5	2243.89	-81.5808	0.662544	0	-0.272486	-0	13.8206	-0	0	0	0	2.60199e-05	0	0.00040293	0	0	0
4.21	43.2598	2142.07	-85.0436	0.624393	0	-0.271302	-0	14.5983	-0	0	0	0	2.60199e-05	0	0.00040293	0	0	0
4.22	129.649	1976.26	-73.6564	0.583865	0	-0.269566	-0	13.8065	-0	0	0	0	2.60199e-05	0	0.00040293	0	0	0
4.23	228.657	1742.3	-57.1106	0.539168	0	-0.268453	-0	11.8107	-0	0	0	0	2.60199e-05	0	0.00040293	0	0	0
4.24	304.083	1447.21	-44.6899	0.492214	0	-0.268661	-0	9.20021	-0	0	0	0	2.60199e-05	0	0.00040293	0	0	0
4.25	325.305	1113.33	-34.0117	0.445627	0	-0.268665	-0	6.52065	-0	0	0	0	2.60199e-05	0	0.00040293	0	0	0
4.26	292.07	772.412	-22.0809	0.402263	0	-0.266659	-0	4.15887	-0	0	0	0	2.60199e-05	0	0.00040293	0	0	0
4.27	214.687	469.479	-12.042	0.369768	0	-0.263179	-0	2.34172	-0	0	0	0	2.60199e-05	0	0.00040293	0	0	0
4.28	122.592	243.423	-5.7129	0.361287	0	-0.259137	-0	1.14558	-0	0	0	0	2.60199e-05	0	0.00040293	0	0	0
4.29	52.0599	103.095	-0.982115	0.379557	0	-0.250309	-0	0.511937	-0	0	0	0	2.60199e-05	0	0.00040293	0	0	0
4.3	16.4255	36.5824	2.54315	0.46481	0	-0.221388	-0	0.286798	-0	0	0	0	2.60199e-05	0	0.00040293	0	0	0
4.31	4.56598	12.812	3.19066	0.663499	0	-0.171049	-0	0.266897	-0	0	0	0	2.60199e-05	0	0.00040293	0	0	0
4.32	0	0	0	2.60199e-05	0	0.00040293	0	0	0	0	0	0	2.60199e-05	0	0.00040293	0	0	0
4.33	0	0	0	2.60199e-05	0	0.00040293	0	0	0	0	0	0	2.60199e-05	0	0.00040293	0	0	0
4.34	0	0	0	2.60199e-05	0	0.00040293	0	0	0	0	0	0	2.60199e-05	0	0.00040293	0	0	0
4.35	0	0	0	2.60199e-05	0	0.00040293	0	0	0	0	0	0	2.60199e-05	0	0.00040293	0	0	0
4.36	0	0	0	2.60199e-05	0	0.00040293	0	0	0	0	0	0	2.60199e-05	0	0.00040293	0	0	0
4.37	0	0	0	2.60199e-05	0	0.00040293	0	0	0	0	0	0	2.60199e-05	0	0.00040293	0	0	0
4.38	0	0	0	2.60199e-05	0	0.00040293	0	0	0	0	0	0	2.60199e-05	0	0.00040293	0	0	0
4.39	0	0	0	2.60199e-05	0	0.00040293	0	0	0	0	0	0	2.60199e-05	0	0.00040293	0	0	0
4.4	0	0	0	2.60199e-05	0	0.00040293	0	0	0	0	0	0	2.60199e-05	0	0.00040293	0	0	0
4.41	0	0	0	2.60199e-05	0	0.00040293	0	0	0	-12.6012	19.1233	-1.22909	0.964448	0	-0.421041	-0	7.3709	-0
4.42	0	0	0	2.60199e-05	0	0.00040293	0	0	0	-38.3674	90.2787	4.86955	0.915998	0	-0.443006	-0	3.49569	-0
4.43	0	0	0	2.60199e-05	0	0.00040293	0	0	0	-113.183	316.341	27.4977	0.921095	0	-0.43521	0	-2.88168	0
4.44	0	0	0	2.60199e-05	0	0.00040293	0	0	0	-223.661	759.764	73.2746	0.920129	0	-0.422264	0	-10.226	0
4.45	0	0	0	2.60199e-05	0	0.00040293	0	0	0	-301.808	1292.04	121.089	0.905921	0	-0.409325	0	-16.2401	0
4.46	0	0	0	2.60199e-05	0	0.00040293	0	0	0	-337.281	1708	125.366	0.879877	0	-0.401318	0	-18.9934	0
4.47	0	0	0	2.60199e-05	0	0.00040293	0	0	0	-349.784	1941.7	74.304	0.847702	0	-0.400089	0	-18.0759	0
4.48	0	0	0	2.60199e-05	0	0.00040293	0	0	0	-330.512	2082.73	17.6609	0.812203	0	-0.399437	0	-14.7656	0
4.49	0	0	0	2.60199e-05	0	0.00040293	0	0	0	-283.932	2216.13	0.545129	0.776065	0	-0.394988	0	-10.9883	0
4.5	0	0	0	2.60199e-05	0	0.00040293	0	0	0	-207.982	2312.32	8.82044	0.739407	0	-0.391356	0	-8.0638	0
4.51	0	0	0	2.60199e-05	0	0.00040293	0	0	0	-112.257	2308.9	10.1544	0.701	0	-0.392047	0	-6.25816	0
4.52	0	0	0	2.60199e-05	0	0.00040293	0	0	0	-14.4616	2196.91	5.36973	0.660856	0	-0.393832	0	-5.10208	0
4.53	0	0	0	2.60199e-05	0	0.00040293	0	0	0	83.2863	1995.09	7.78332	0.619333	0	-0.393198	0	-3.88031	0
4.54	0	0	0	2.60199e-05	0	0.00040293	0	0	0	185.888	1713.57	9.40998	0.575685	0	-0.39127	0	-2.04971	0
4.55	0	0	0	2.60199e-05	0	0.00040293	0	0	0	261.252	1363.13	-1.30473	0.530653	0	-0.391561	-0	0.420976	-0
4.56	0	0	0	2.60199e-05	0	0.00040293	0	0	0	277.75	976.973	-14.9137	0.485787	0	-0.394714	-0	2.99581	-0
4.57	0	0	0	2.60199e-05	0	0.00040293	0	0	0	239.315	616.336	-17.2531	0.447003	0	-0.39613	-0	4.93788	-0
4.58	0	0	0	2.60199e-05	0	0.00040293	0	0	0	168.407	335.198	-11.241	0.425716	0	-0.392092	-0	5.79255	-0
4.59	0	0	0	2.60199e-05	0	0.00040293	0	0	0	91.2323	147.873	-7.69466	0.418461	0	-0.392959	-0	5.57208	-0
4.6	0	0	0	2.60199e-05	0	0.00040293	0	0	0	36.5907	48.3737	-7.63518	0.400682	0	-0.418942	-0	4.61352	-0
4.61	0	0	0	2.60199e-05	0	0.00040293	0	0	0	10.2961	15.2779	-5.15938	0.493475	0	-0.391767	-0	3.36649	-0
4.62	0	0	0	2.60199e-05	0	0.00040293	0	0	0	0.195391	11.345	-0.148714	0.800293	0	-0.181128	-0	2.24627	-0
4.63	0	0	0	2.60199e-05	0	0.00040293	0	0	0	0	0	0	2.60199e-05	0	0.00040293	0	0	0
4.64	0	0	0	2.60199e-05	0	0.00040293	0	0	0	0	0	0	2.60199e-05	0	0.00040293	0	0	0
4.65	0	0	0	2.60199e-05	0	0.00040293	0	0	0	0	0	0	2.60199e-05	0	0.00040293	0	0	0
4.66	0	0	0	2.60199e-05	0	0.00040293	0	0	0	0	0	0	2.60199e-05	0	0.00040293	0	0	0
4.67	0	0	0	2.60199e-05	0	0.00040293	0	0	0	0	0	0	2.60199e-05	0	0.00040293	0	0	0
4.68	0	0	0	2.60199e-05	0	0.00040293	0	0	0	0	0	0	2.60199e-05	0	0.00040293	0	0	0
4.69	0	0	0	2.60199e-05	0	0.00040293	0	0	0	0	0	0	2.60199e-05	0	0.00040293	0	0	0
4.7	0	0	0	2.60199e-05	0	0.00040293	0	0	0	0	0	0	2.60199e-05	0	0.00040293	0	0	0
4.71	0	0	0	2.60199e-05	0	0.00040293	0	0	0	0	0	0	2.60199e-05	0	0.00040293	0	0	0
4.72	-5.84386	16.7759	-4.58354	0.879019	0	-0.235898	0	-1.7839	0	0	0	0	2.60199e-05	0	0.00040293	0	0	0
4.73	-24.4035	67.9345	-13.3661	0.92248	0	-0.27337	-0	0.154993	-0	0	0	0	2.60199e-05	0	0.00040293	0	0	0
4.74	-78.7481	228.056	-27.2528	0.939084	0	-0.282521	-0	2.80391	-0	0	0	0	2.60199e-05	0	0.00040293	0	0	0
4.75	-161.645	549.706	-43.6539	0.931518	0	-0.287564	-0	5.38815	-0	0	0	0	2.60199e-05	0	0.00040293	0	0	0
4.76	-211.605	971.094	-53.2086	0.906184	0	-0.292887	-0	7.03364	-0	0	0	0	2.60199e-05	0	0.00040293	0	0	0
4.77	-209.916	1393.31	-44.7095	0.867274	0	-0.299557	-0	7.21073	-0	0	0	0	2.60199e-05	0	0.00040293	0	0	0
4.78	-210.109	1753.72	-15.6865	0.827433	0	-0.305975	-0	6.08921	-0	0	0	0	2.60199e-05	0	0.00040293	0	0	0
4.79	-209.149	2011.92	20.2926	0.790523	0	-0.310641	-0	4.51806	-0	0	0	0	2.60199e-05	0	0.00040293	0	0	0
4.8	-173.151	2178.89	41.0321	0.752924	0	-0.313454	-0	3.5518	-0	0	0	0	2.60199e-05	0	0.00040293	0	0	0
4.81	-98.7924	2279.62	37.5455	0.714122	0	-0.314812	-0	3.81276	-0	0	0	0	2.60199e-05	0	0.00040293	0	0	0
4.82	-13.2283	2312.37	22.2628	0.676783	0	-0.314724	-0	5.16309	-0	0	0	0	2.60199e-05	0	0.00040293	0	0	0
4.83	62.4334	2263.8	11.2762	0.641567	0	-0.31355	-0	6.90076	-0	0	0	0	2.60199e-05	0	0.00040293	0	0	0
4.84	132.46	2123.24	9.00432	0.605878	0	-0.3125	-0	8.2462	-0	0	0	0	2.60199e-05	0	0.00040293	0	0	0
4.85	203.725	1883.96	12.9677	0.56643	0	-0.312271	-0	8.74084	-0	0	0	0	2.60199e-05	0	0.00040293	0	0	0
4.86	270.581	1554.36	20.2937	0.520998	0	-0.312228	-0	8.3726	-0	0	0	0	2.60199e-05	0	0.00040293	0	0	0
4.87	302.807	1176.62	25.6148	0.47428	0	-0.311163	-0	7.4507	-0	0	0	0	2.60199e-05	0	0.00040293	0	0	0
4.88	272.191	804.809	23.0678	0.433447	0	-0.309011	-0	6.34695	-0	0	0	0	2.60199e-05	0	0.00040293	0	0	0
4.89	194.449	482.178	13.6218	0.39692	0	-0.307307	-0	5.27609	-0	0	0	0	2.60199e-05	0	0.00040293	0	0	0
4.9	108.593	245.527	4.98941	0.370824	0	-0.305196	-0	4.2591	-0	0	0	0	2.60199e-05	0	0.00040293	0	0	0
4.91	43.5181	104.305	2.55811	0.385616	0	-0.294009	-0	3.24857	-0	0	0	0	2.60199e-05	0	0.00040293	0	0	0
